<?xml version="1.0" standalone="no"?>
<!DOCTYPE svg PUBLIC "-//W3C//DTD SVG 20010904//EN"
 "http://www.w3.org/TR/2001/REC-SVG-20010904/DTD/svg10.dtd">
<svg version="1.0" xmlns="http://www.w3.org/2000/svg"
 width="512.000000pt" height="512.000000pt" viewBox="0 0 512.000000 512.000000"
 preserveAspectRatio="xMidYMid meet">
<metadata>
Created by potrace 1.14, written by Peter Selinger 2001-2017
</metadata>
<g transform="translate(0.000000,512.000000) scale(0.100000,-0.100000)"
fill="#000000" stroke="none">
<path d="M189 4946 c-125 -33 -196 -140 -187 -280 7 -102 51 -170 143 -220 37
-19 59 -21 265 -26 l224 -5 248 -1485 c136 -817 254 -1503 263 -1526 23 -60
78 -119 138 -149 l53 -25 1539 2 1540 3 36 22 c89 55 139 140 139 234 0 112
-52 199 -148 246 l-57 28 -1381 3 -1380 2 -17 113 c-9 62 -17 118 -17 124 0
10 338 13 1533 15 l1532 3 47 23 c64 32 125 102 143 166 20 72 275 1880 275
1952 -1 103 -58 193 -152 235 l-53 24 -1867 3 c-1474 2 -1868 5 -1868 15 -1
51 -62 341 -78 374 -29 55 -95 110 -156 128 -65 20 -685 21 -757 1z m2001
-1321 l0 -265 -415 0 -414 0 -6 33 c-3 17 -23 137 -44 265 l-37 232 458 0 458
0 0 -265z m1060 0 l0 -265 -390 0 -390 0 0 265 0 265 390 0 390 0 0 -265z
m1287 228 c-3 -21 -20 -140 -38 -265 l-32 -228 -469 0 -468 0 0 265 0 265 506
0 507 0 -6 -37z m-2347 -1028 l0 -265 -348 0 -347 0 -43 253 c-23 138 -42 258
-42 265 0 9 85 12 390 12 l390 0 0 -265z m1060 0 l0 -265 -390 0 -390 0 0 265
0 265 390 0 390 0 0 -265z m1175 243 c-2 -13 -18 -122 -35 -243 -17 -121 -33
-230 -35 -242 l-5 -23 -410 0 -410 0 0 265 0 265 450 0 450 0 -5 -22z"/>
<path d="M1710 959 c-156 -31 -285 -166 -311 -329 -44 -272 189 -505 461 -461
320 52 451 450 222 678 -99 99 -233 139 -372 112z"/>
<path d="M4095 956 c-118 -27 -221 -112 -273 -224 -24 -51 -27 -69 -27 -167 0
-98 3 -116 27 -167 55 -119 170 -206 301 -228 245 -43 467 145 467 395 0 260
-240 450 -495 391z"/>
</g>
</svg>
